<svg width="34" height="30" viewBox="0 0 34 30" fill="none" xmlns="http://www.w3.org/2000/svg">
<path d="M18.39 2.73611L16.9951 4.16302L15.5957 2.73482C12.028 -0.906693 6.24355 -0.906693 2.67582 2.73482C-0.891939 6.37632 -0.891939 12.2804 2.67582 15.9219L16.0954 29.6189C16.5932 30.127 17.4004 30.127 17.8983 29.6189L31.3281 15.9193C34.888 12.2658 34.8941 6.37828 31.3258 2.73611C27.7515 -0.912036 21.9642 -0.912036 18.39 2.73611ZM29.5204 14.0844L16.9968 26.859L4.4786 14.0818C1.90649 11.4565 1.90649 7.20016 4.4786 4.57488C7.0507 1.94959 11.2209 1.94959 13.793 4.57488L16.1002 6.9298C16.6065 7.44655 17.4303 7.43647 17.9243 6.90751L20.1928 4.57617C22.7714 1.94426 26.9443 1.94426 29.5229 4.57617C32.0957 7.20208 32.0913 11.4459 29.5204 14.0844Z" fill="#E06666"/>
</svg>
