<svg width="44" height="40" viewBox="0 0 44 40" fill="#E06666" xmlns="http://www.w3.org/2000/svg">
<path d="M40.2498 4.27504C39.1023 3.11501 37.7355 2.19491 36.229 1.56826C34.7225 0.941637 33.1063 0.620988 31.4748 0.625038C29.843 0.620988 28.227 0.941637 26.7205 1.56826C25.214 2.19491 23.8473 3.11501 22.6998 4.27504L21.9998 5.00004L21.2998 4.30001C18.979 1.97954 15.8316 0.675913 12.5498 0.675913C9.26794 0.675913 6.12051 1.97954 3.79979 4.30001C1.50944 6.63664 0.226562 9.77811 0.226562 13.05C0.226562 16.322 1.50944 19.4635 3.79979 21.8L20.7248 38.775C21.0763 39.1262 21.5528 39.3235 22.0498 39.3235C22.5465 39.3235 23.0233 39.1262 23.3748 38.775L40.2998 21.8C42.591 19.4557 43.8695 16.3052 43.8603 13.0273C43.851 9.74931 42.5543 6.60619 40.2498 4.27504Z" fill="#E06666"/>
</svg>
