<svg width="30" height="30" viewBox="0 0 30 30" fill="none" xmlns="http://www.w3.org/2000/svg">
<path d="M27.75 15C27.75 7.95837 22.0416 2.25 15 2.25C7.95837 2.25 2.25 7.95837 2.25 15C2.25 22.0416 7.95837 27.75 15 27.75C22.0416 27.75 27.75 22.0416 27.75 15ZM30 15C30 23.2842 23.2842 30 15 30C6.71572 30 0 23.2842 0 15C0 6.71572 6.71572 0 15 0C23.2842 0 30 6.71572 30 15ZM7.5 16.875C8.53554 16.875 9.375 16.0356 9.375 15C9.375 13.9644 8.53554 13.125 7.5 13.125C6.46446 13.125 5.625 13.9644 5.625 15C5.625 16.0356 6.46446 16.875 7.5 16.875ZM15 16.875C16.0356 16.875 16.875 16.0356 16.875 15C16.875 13.9644 16.0356 13.125 15 13.125C13.9644 13.125 13.125 13.9644 13.125 15C13.125 16.0356 13.9644 16.875 15 16.875ZM22.5 16.875C23.5356 16.875 24.375 16.0356 24.375 15C24.375 13.9644 23.5356 13.125 22.5 13.125C21.4644 13.125 20.625 13.9644 20.625 15C20.625 16.0356 21.4644 16.875 22.5 16.875Z" fill="#E06666"/>
</svg>
