<svg width="25" height="31" viewBox="0 0 25 31" fill="none" xmlns="http://www.w3.org/2000/svg">
<path d="M20.6317 18.0003C22.4949 18.0003 24.0051 19.5105 24.0051 21.3737V22.2368C24.0051 23.5782 23.5257 24.8754 22.6534 25.8945C20.2993 28.6448 16.7185 30.002 12.0006 30.002C7.28174 30.002 3.70273 28.6443 1.35328 25.8929C0.483625 24.8745 0.00585938 23.5793 0.00585938 22.2401V21.3737C0.00585938 19.5105 1.51613 18.0003 3.37916 18.0003H20.6317ZM20.6317 20.2503H3.37916C2.75878 20.2503 2.25586 20.7533 2.25586 21.3737V22.2401C2.25586 23.0436 2.54252 23.8208 3.0643 24.4317C4.94426 26.6333 7.89308 27.752 12.0006 27.752C16.108 27.752 19.0594 26.6333 20.944 24.4314C21.4675 23.8199 21.7551 23.0415 21.7551 22.2368V21.3737C21.7551 20.7533 21.2521 20.2503 20.6317 20.2503ZM12.0006 0.00732422C16.1427 0.00732422 19.5006 3.36519 19.5006 7.50732C19.5006 11.6495 16.1427 15.0074 12.0006 15.0074C7.8584 15.0074 4.50053 11.6495 4.50053 7.50732C4.50053 3.36519 7.8584 0.00732422 12.0006 0.00732422ZM12.0006 2.25732C9.10109 2.25732 6.75053 4.60784 6.75053 7.50732C6.75053 10.4068 9.10109 12.7574 12.0006 12.7574C14.9001 12.7574 17.2506 10.4068 17.2506 7.50732C17.2506 4.60784 14.9001 2.25732 12.0006 2.25732Z" fill="#E06666"/>
</svg>
