<svg width="8" height="41" viewBox="0 0 8 41" fill="none" xmlns="http://www.w3.org/2000/svg">
<path fill-rule="evenodd" clip-rule="evenodd" d="M4 32.9853C6.20641 32.9853 8 34.7789 8 36.9853C8 39.1917 6.20641 40.9853 4 40.9853C1.79359 40.9853 0 39.1917 0 36.9853C0 34.7789 1.79359 32.9853 4 32.9853ZM4 16.9853C6.20641 16.9853 8 18.7789 8 20.9853C8 23.1917 6.20641 24.9853 4 24.9853C1.79359 24.9853 0 23.1917 0 20.9853C0 18.7789 1.79359 16.9853 4 16.9853ZM4 0.985352C6.20641 0.985352 8 2.77894 8 4.98535C8 7.19174 6.20641 8.98535 4 8.98535C1.79359 8.98535 0 7.19174 0 4.98535C0 2.77894 1.79359 0.985352 4 0.985352Z" fill="#E36E6E"/>
</svg>
