<svg width="44" height="40" viewBox="0 0 44 40" fill="#E06666" xmlns="http://www.w3.org/2000/svg">
<path d="M22 39.3752C21.503 39.3747 21.0262 39.177 20.675 38.8252L3.74998 21.8502C1.45963 19.5135 0.176758 16.372 0.176758 13.1001C0.176758 9.82825 1.45963 6.68675 3.74998 4.35015C6.07071 2.02965 9.21813 0.726048 12.5 0.726048C15.7818 0.726048 18.9292 2.02965 21.25 4.35015L22 5.00015L22.7 4.30015C23.8475 3.14015 25.2142 2.22002 26.7207 1.5934C28.2272 0.966748 29.8435 0.646123 31.475 0.650148C33.105 0.642848 34.72 0.959548 36.2265 1.58185C37.7327 2.20417 39.1005 3.11965 40.25 4.27515C42.5402 6.61175 43.8232 9.75325 43.8232 13.0251C43.8232 16.297 42.5402 19.4385 40.25 21.7752L23.325 38.7502C23.1575 38.938 22.9537 39.09 22.726 39.1975C22.4985 39.3047 22.2515 39.3652 22 39.3752ZM12.525 4.37515C11.3896 4.36687 10.2637 4.58355 9.21246 5.01262C8.16121 5.44172 7.20533 6.07472 6.39998 6.87515C4.77716 8.50552 3.86611 10.7123 3.86611 13.0126C3.86611 15.313 4.77716 17.5197 6.39998 19.1502L22 34.8502L37.575 19.2002C38.3815 18.3945 39.0215 17.4377 39.458 16.3845C39.8945 15.3315 40.1192 14.2027 40.1192 13.0626C40.1192 11.9226 39.8945 10.7938 39.458 9.74067C39.0215 8.68757 38.3815 7.73082 37.575 6.92515C36.776 6.12322 35.8247 5.489 34.7772 5.05967C33.7297 4.63037 32.607 4.41465 31.475 4.42515C30.3395 4.41687 29.2137 4.63355 28.1625 5.06262C27.1112 5.49172 26.1552 6.12472 25.35 6.92515L23.325 8.95015C22.9672 9.28952 22.493 9.47872 22 9.47872C21.507 9.47872 21.0327 9.28952 20.675 8.95015L18.65 6.92515C17.8487 6.1157 16.8947 5.47347 15.8433 5.03572C14.7918 4.59797 13.6639 4.37342 12.525 4.37515Z" fill="#E06666"/>
</svg>
